<svg width="374" height="83" viewBox="0 0 374 83" fill="none" xmlns="http://www.w3.org/2000/svg">
<path d="M87.56 58L83.27 51.85C83.09 51.87 82.82 51.88 82.46 51.88H77.72V58H73.82V37H82.46C84.28 37 85.86 37.3 87.2 37.9C88.56 38.5 89.6 39.36 90.32 40.48C91.04 41.6 91.4 42.93 91.4 44.47C91.4 46.05 91.01 47.41 90.23 48.55C89.47 49.69 88.37 50.54 86.93 51.1L91.76 58H87.56ZM87.47 44.47C87.47 43.13 87.03 42.1 86.15 41.38C85.27 40.66 83.98 40.3 82.28 40.3H77.72V48.67H82.28C83.98 48.67 85.27 48.31 86.15 47.59C87.03 46.85 87.47 45.81 87.47 44.47ZM112.263 50.08C112.263 50.34 112.243 50.71 112.203 51.19H99.6334C99.8534 52.37 100.423 53.31 101.343 54.01C102.283 54.69 103.443 55.03 104.823 55.03C106.583 55.03 108.033 54.45 109.173 53.29L111.183 55.6C110.463 56.46 109.553 57.11 108.453 57.55C107.353 57.99 106.113 58.21 104.733 58.21C102.973 58.21 101.423 57.86 100.083 57.16C98.7434 56.46 97.7034 55.49 96.9634 54.25C96.2434 52.99 95.8834 51.57 95.8834 49.99C95.8834 48.43 96.2334 47.03 96.9334 45.79C97.6534 44.53 98.6434 43.55 99.9034 42.85C101.163 42.15 102.583 41.8 104.163 41.8C105.723 41.8 107.113 42.15 108.333 42.85C109.573 43.53 110.533 44.5 111.213 45.76C111.913 47 112.263 48.44 112.263 50.08ZM104.163 44.8C102.963 44.8 101.943 45.16 101.103 45.88C100.283 46.58 99.7834 47.52 99.6034 48.7H108.693C108.533 47.54 108.043 46.6 107.223 45.88C106.403 45.16 105.383 44.8 104.163 44.8ZM122.615 58.21C121.315 58.21 120.045 58.04 118.805 57.7C117.565 57.36 116.575 56.93 115.835 56.41L117.275 53.56C117.995 54.04 118.855 54.43 119.855 54.73C120.875 55.01 121.875 55.15 122.855 55.15C125.095 55.15 126.215 54.56 126.215 53.38C126.215 52.82 125.925 52.43 125.345 52.21C124.785 51.99 123.875 51.78 122.615 51.58C121.295 51.38 120.215 51.15 119.375 50.89C118.555 50.63 117.835 50.18 117.215 49.54C116.615 48.88 116.315 47.97 116.315 46.81C116.315 45.29 116.945 44.08 118.205 43.18C119.485 42.26 121.205 41.8 123.365 41.8C124.465 41.8 125.565 41.93 126.665 42.19C127.765 42.43 128.665 42.76 129.365 43.18L127.925 46.03C126.565 45.23 125.035 44.83 123.335 44.83C122.235 44.83 121.395 45 120.815 45.34C120.255 45.66 119.975 46.09 119.975 46.63C119.975 47.23 120.275 47.66 120.875 47.92C121.495 48.16 122.445 48.39 123.725 48.61C125.005 48.81 126.055 49.04 126.875 49.3C127.695 49.56 128.395 50 128.975 50.62C129.575 51.24 129.875 52.12 129.875 53.26C129.875 54.76 129.225 55.96 127.925 56.86C126.625 57.76 124.855 58.21 122.615 58.21ZM150.415 41.98V58H146.845V55.96C146.245 56.68 145.495 57.24 144.595 57.64C143.695 58.02 142.725 58.21 141.685 58.21C139.545 58.21 137.855 57.62 136.615 56.44C135.395 55.24 134.785 53.47 134.785 51.13V41.98H138.535V50.62C138.535 52.06 138.855 53.14 139.495 53.86C140.155 54.56 141.085 54.91 142.285 54.91C143.625 54.91 144.685 54.5 145.465 53.68C146.265 52.84 146.665 51.64 146.665 50.08V41.98H150.415ZM177.345 41.8C179.365 41.8 180.965 42.39 182.145 43.57C183.325 44.73 183.915 46.48 183.915 48.82V58H180.165V49.3C180.165 47.9 179.855 46.85 179.235 46.15C178.615 45.43 177.725 45.07 176.565 45.07C175.305 45.07 174.295 45.49 173.535 46.33C172.775 47.15 172.395 48.33 172.395 49.87V58H168.645V49.3C168.645 47.9 168.335 46.85 167.715 46.15C167.095 45.43 166.205 45.07 165.045 45.07C163.765 45.07 162.745 45.48 161.985 46.3C161.245 47.12 160.875 48.31 160.875 49.87V58H157.125V41.98H160.695V44.02C161.295 43.3 162.045 42.75 162.945 42.37C163.845 41.99 164.845 41.8 165.945 41.8C167.145 41.8 168.205 42.03 169.125 42.49C170.065 42.93 170.805 43.59 171.345 44.47C172.005 43.63 172.855 42.98 173.895 42.52C174.935 42.04 176.085 41.8 177.345 41.8ZM205.713 50.08C205.713 50.34 205.693 50.71 205.653 51.19H193.083C193.303 52.37 193.873 53.31 194.793 54.01C195.733 54.69 196.893 55.03 198.273 55.03C200.033 55.03 201.483 54.45 202.623 53.29L204.633 55.6C203.913 56.46 203.003 57.11 201.903 57.55C200.803 57.99 199.563 58.21 198.183 58.21C196.423 58.21 194.873 57.86 193.533 57.16C192.193 56.46 191.153 55.49 190.413 54.25C189.693 52.99 189.333 51.57 189.333 49.99C189.333 48.43 189.683 47.03 190.383 45.79C191.103 44.53 192.093 43.55 193.353 42.85C194.613 42.15 196.033 41.8 197.613 41.8C199.173 41.8 200.563 42.15 201.783 42.85C203.023 43.53 203.983 44.5 204.663 45.76C205.363 47 205.713 48.44 205.713 50.08ZM197.613 44.8C196.413 44.8 195.393 45.16 194.553 45.88C193.733 46.58 193.233 47.52 193.053 48.7H202.143C201.983 47.54 201.493 46.6 200.673 45.88C199.853 45.16 198.833 44.8 197.613 44.8Z" fill="black"/>
<path d="M87.56 58L86.7398 58.5721L87.0383 59H87.56V58ZM83.27 51.85L84.0902 51.2779L83.7502 50.7905L83.1596 50.8561L83.27 51.85ZM77.72 51.88V50.88H76.72V51.88H77.72ZM77.72 58V59H78.72V58H77.72ZM73.82 58H72.82V59H73.82V58ZM73.82 37V36H72.82V37H73.82ZM87.2 37.9L86.7913 38.8127L86.7964 38.8149L87.2 37.9ZM90.32 40.48L91.1612 39.9392V39.9392L90.32 40.48ZM90.23 48.55L89.4046 47.9853L89.398 47.9953L90.23 48.55ZM86.93 51.1L86.5676 50.168L85.3802 50.6298L86.1108 51.6735L86.93 51.1ZM91.76 58V59H93.6807L92.5792 57.4265L91.76 58ZM86.15 41.38L85.5168 42.154L86.15 41.38ZM77.72 40.3V39.3H76.72V40.3H77.72ZM77.72 48.67H76.72V49.67H77.72V48.67ZM86.15 47.59L86.7833 48.364L86.7936 48.3554L86.15 47.59ZM88.3802 57.4279L84.0902 51.2779L82.4498 52.4221L86.7398 58.5721L88.3802 57.4279ZM83.1596 50.8561C83.0365 50.8698 82.8116 50.88 82.46 50.88V52.88C82.8284 52.88 83.1435 52.8702 83.3804 52.8439L83.1596 50.8561ZM82.46 50.88H77.72V52.88H82.46V50.88ZM76.72 51.88V58H78.72V51.88H76.72ZM77.72 57H73.82V59H77.72V57ZM74.82 58V37H72.82V58H74.82ZM73.82 38H82.46V36H73.82V38ZM82.46 38C84.172 38 85.6068 38.2823 86.7913 38.8127L87.6087 36.9873C86.1132 36.3177 84.388 36 82.46 36V38ZM86.7964 38.8149C87.9986 39.3453 88.8769 40.0845 89.4788 41.0208L91.1612 39.9392C90.3231 38.6355 89.1214 37.6547 87.6036 36.9851L86.7964 38.8149ZM89.4788 41.0208C90.0797 41.9554 90.4 43.091 90.4 44.47H92.4C92.4 42.769 92.0003 41.2446 91.1612 39.9392L89.4788 41.0208ZM90.4 44.47C90.4 45.8784 90.0551 47.0347 89.4047 47.9853L91.0553 49.1147C91.9649 47.7853 92.4 46.2216 92.4 44.47H90.4ZM89.398 47.9953C88.7662 48.9429 87.8414 49.6726 86.5676 50.168L87.2924 52.032C88.8986 51.4074 90.1738 50.4371 91.0621 49.1047L89.398 47.9953ZM86.1108 51.6735L90.9408 58.5735L92.5792 57.4265L87.7492 50.5265L86.1108 51.6735ZM91.76 57H87.56V59H91.76V57ZM88.47 44.47C88.47 42.8897 87.9379 41.5507 86.7832 40.606L85.5168 42.154C86.1221 42.6493 86.47 43.3703 86.47 44.47H88.47ZM86.7832 40.606C85.6548 39.6828 84.1009 39.3 82.28 39.3V41.3C83.8591 41.3 84.8852 41.6372 85.5168 42.154L86.7832 40.606ZM82.28 39.3H77.72V41.3H82.28V39.3ZM76.72 40.3V48.67H78.72V40.3H76.72ZM77.72 49.67H82.28V47.67H77.72V49.67ZM82.28 49.67C84.1009 49.67 85.6548 49.2872 86.7832 48.364L85.5168 46.816C84.8852 47.3328 83.8591 47.67 82.28 47.67V49.67ZM86.7936 48.3554C87.938 47.393 88.47 46.0509 88.47 44.47H86.47C86.47 45.5691 86.122 46.307 85.5064 46.8246L86.7936 48.3554ZM112.203 51.19V52.19H113.123L113.2 51.273L112.203 51.19ZM99.6334 51.19V50.19H98.4297L98.6503 51.3733L99.6334 51.19ZM101.343 54.01L100.738 54.8058L100.747 54.8131L100.757 54.8202L101.343 54.01ZM109.173 53.29L109.928 52.6336L109.218 51.8179L108.46 52.5891L109.173 53.29ZM111.183 55.6L111.95 56.2419L112.498 55.5875L111.938 54.9436L111.183 55.6ZM108.453 57.55L108.082 56.6215L108.453 57.55ZM100.083 57.16L99.6203 58.0463L100.083 57.16ZM96.9634 54.25L96.0951 54.7461L96.0998 54.7543L96.1046 54.7625L96.9634 54.25ZM96.9334 45.79L96.0651 45.2939L96.0625 45.2984L96.9334 45.79ZM99.9034 42.85L100.389 43.7242L99.9034 42.85ZM108.333 42.85L107.836 43.7174L107.844 43.7222L107.853 43.7268L108.333 42.85ZM111.213 45.76L110.333 46.2349L110.338 46.2433L110.343 46.2516L111.213 45.76ZM101.103 45.88L101.753 46.6406L101.754 46.6393L101.103 45.88ZM99.6034 48.7L98.6148 48.5492L98.4392 49.7H99.6034V48.7ZM108.693 48.7V49.7H109.841L109.684 48.5634L108.693 48.7ZM107.223 45.88L106.564 46.6314L107.223 45.88ZM111.263 50.08C111.263 50.2982 111.246 50.6356 111.207 51.107L113.2 51.273C113.241 50.7844 113.263 50.3818 113.263 50.08H111.263ZM112.203 50.19H99.6334V52.19H112.203V50.19ZM98.6503 51.3733C98.9139 52.787 99.6122 53.9493 100.738 54.8058L101.949 53.2142C101.235 52.6707 100.793 51.953 100.616 51.0067L98.6503 51.3733ZM100.757 54.8202C101.898 55.6456 103.274 56.03 104.823 56.03V54.03C103.613 54.03 102.669 53.7344 101.929 53.1998L100.757 54.8202ZM104.823 56.03C106.827 56.03 108.542 55.359 109.887 53.9909L108.46 52.5891C107.525 53.541 106.34 54.03 104.823 54.03V56.03ZM108.419 53.9464L110.429 56.2564L111.938 54.9436L109.928 52.6336L108.419 53.9464ZM110.417 54.9581C109.809 55.6842 109.037 56.2393 108.082 56.6215L108.825 58.4785C110.069 57.9807 111.118 57.2358 111.95 56.2419L110.417 54.9581ZM108.082 56.6215C107.118 57.0072 106.007 57.21 104.733 57.21V59.21C106.22 59.21 107.589 58.9728 108.825 58.4785L108.082 56.6215ZM104.733 57.21C103.108 57.21 101.722 56.8876 100.546 56.2737L99.6203 58.0463C101.125 58.8324 102.839 59.21 104.733 59.21V57.21ZM100.546 56.2737C99.3623 55.6551 98.4627 54.8111 97.8221 53.7375L96.1046 54.7625C96.944 56.1689 98.1245 57.2649 99.6203 58.0463L100.546 56.2737ZM97.8316 53.7539C97.2055 52.6582 96.8834 51.4119 96.8834 49.99H94.8834C94.8834 51.7281 95.2812 53.3218 96.0951 54.7461L97.8316 53.7539ZM96.8834 49.99C96.8834 48.5854 97.1968 47.3575 97.8042 46.2816L96.0625 45.2984C95.2699 46.7025 94.8834 48.2746 94.8834 49.99H96.8834ZM97.8016 46.2861C98.4316 45.1836 99.2898 44.3348 100.389 43.7242L99.4177 41.9758C97.9969 42.7652 96.8751 43.8764 96.0651 45.2939L97.8016 46.2861ZM100.389 43.7242C101.486 43.1145 102.737 42.8 104.163 42.8V40.8C102.43 40.8 100.84 41.1855 99.4177 41.9758L100.389 43.7242ZM104.163 42.8C105.568 42.8 106.783 43.1135 107.836 43.7174L108.831 41.9826C107.443 41.1865 105.878 40.8 104.163 40.8V42.8ZM107.853 43.7268C108.921 44.3129 109.744 45.1423 110.333 46.2349L112.093 45.2851C111.323 43.8577 110.225 42.7471 108.814 41.9732L107.853 43.7268ZM110.343 46.2516C110.946 47.3201 111.263 48.5858 111.263 50.08H113.263C113.263 48.2942 112.881 46.6799 112.084 45.2684L110.343 46.2516ZM104.163 43.8C102.746 43.8 101.49 44.2318 100.453 45.1207L101.754 46.6393C102.397 46.0882 103.18 45.8 104.163 45.8V43.8ZM100.454 45.1194C99.4315 45.9924 98.8268 47.1591 98.6148 48.5492L100.592 48.8508C100.74 47.8809 101.135 47.1676 101.753 46.6406L100.454 45.1194ZM99.6034 49.7H108.693V47.7H99.6034V49.7ZM109.684 48.5634C109.494 47.1842 108.898 46.0192 107.883 45.1286L106.564 46.6314C107.189 47.1808 107.573 47.8958 107.703 48.8366L109.684 48.5634ZM107.883 45.1286C106.859 44.2292 105.595 43.8 104.163 43.8V45.8C105.171 45.8 105.948 46.0908 106.564 46.6314L107.883 45.1286ZM118.805 57.7L118.541 58.6644L118.805 57.7ZM115.835 56.41L114.943 55.959L114.553 56.7309L115.261 57.2282L115.835 56.41ZM117.275 53.56L117.83 52.7279L116.892 52.1022L116.383 53.109L117.275 53.56ZM119.855 54.73L119.568 55.6878L119.579 55.6912L119.591 55.6943L119.855 54.73ZM125.345 52.21L124.98 53.1408L124.991 53.145L125.345 52.21ZM122.615 51.58L122.772 50.5923L122.765 50.5913L122.615 51.58ZM119.375 50.89L119.073 51.8433L119.08 51.8453L119.375 50.89ZM117.215 49.54L116.476 50.2127L116.486 50.2244L116.497 50.2358L117.215 49.54ZM118.205 43.18L118.787 43.9937L118.789 43.992L118.205 43.18ZM126.665 42.19L126.435 43.1632L126.444 43.1652L126.452 43.167L126.665 42.19ZM129.365 43.18L130.258 43.631L130.677 42.801L129.88 42.3225L129.365 43.18ZM127.925 46.03L127.418 46.8919L128.337 47.4324L128.818 46.481L127.925 46.03ZM120.815 45.34L121.312 46.2083L121.321 46.2027L120.815 45.34ZM120.875 47.92L120.478 48.8376L120.496 48.8454L120.514 48.8526L120.875 47.92ZM123.725 48.61L123.556 49.5955L123.564 49.5968L123.571 49.598L123.725 48.61ZM126.875 49.3L127.178 48.3468L126.875 49.3ZM128.975 50.62L128.245 51.3032L128.251 51.3093L128.257 51.3154L128.975 50.62ZM127.925 56.86L127.356 56.0378L127.925 56.86ZM122.615 57.21C121.404 57.21 120.223 57.0517 119.07 56.7356L118.541 58.6644C119.868 59.0283 121.227 59.21 122.615 59.21V57.21ZM119.07 56.7356C117.898 56.4143 117.025 56.024 116.41 55.5918L115.261 57.2282C116.125 57.836 117.233 58.3057 118.541 58.6644L119.07 56.7356ZM116.728 56.861L118.168 54.011L116.383 53.109L114.943 55.959L116.728 56.861ZM116.721 54.392C117.538 54.9369 118.492 55.365 119.568 55.6878L120.143 53.7722C119.219 53.495 118.453 53.1431 117.83 52.7279L116.721 54.392ZM119.591 55.6943C120.69 55.9961 121.779 56.15 122.855 56.15V54.15C121.972 54.15 121.061 54.0239 120.12 53.7657L119.591 55.6943ZM122.855 56.15C124.031 56.15 125.066 56.0007 125.842 55.5922C126.244 55.3802 126.599 55.0862 126.851 54.6891C127.104 54.2882 127.215 53.8396 127.215 53.38H125.215C125.215 53.5104 125.187 53.578 125.16 53.6197C125.132 53.6651 125.067 53.7398 124.909 53.8228C124.565 54.0043 123.92 54.15 122.855 54.15V56.15ZM127.215 53.38C127.215 52.9191 127.093 52.4638 126.8 52.0708C126.514 51.6855 126.12 51.4342 125.7 51.275L124.991 53.145C125.151 53.2058 125.192 53.2595 125.196 53.2642C125.198 53.2677 125.201 53.2723 125.205 53.2838C125.209 53.2968 125.215 53.3265 125.215 53.38H127.215ZM125.711 51.2792C125.044 51.0171 124.043 50.794 122.772 50.5924L122.459 52.5676C123.708 52.766 124.527 52.9629 124.98 53.1408L125.711 51.2792ZM122.765 50.5913C121.472 50.3954 120.446 50.1745 119.671 49.9347L119.08 51.8453C119.985 52.1255 121.119 52.3646 122.466 52.5687L122.765 50.5913ZM119.678 49.9368C119.021 49.7286 118.443 49.3697 117.934 48.8442L116.497 50.2358C117.228 50.9903 118.09 51.5314 119.073 51.8432L119.678 49.9368ZM117.955 48.8673C117.568 48.4413 117.315 47.798 117.315 46.81H115.315C115.315 48.142 115.663 49.3187 116.476 50.2127L117.955 48.8673ZM117.315 46.81C117.315 45.6201 117.784 44.7102 118.787 43.9937L117.624 42.3663C116.107 43.4498 115.315 44.9599 115.315 46.81H117.315ZM118.789 43.992C119.846 43.2321 121.339 42.8 123.365 42.8V40.8C121.072 40.8 119.125 41.2879 117.622 42.368L118.789 43.992ZM123.365 42.8C124.386 42.8 125.409 42.9205 126.435 43.1632L126.895 41.2168C125.722 40.9395 124.545 40.8 123.365 40.8V42.8ZM126.452 43.167C127.483 43.392 128.272 43.6902 128.851 44.0375L129.88 42.3225C129.059 41.8298 128.048 41.468 126.879 41.213L126.452 43.167ZM128.473 42.729L127.033 45.579L128.818 46.481L130.258 43.631L128.473 42.729ZM128.432 45.1681C126.907 44.2707 125.199 43.83 123.335 43.83V45.83C124.871 45.83 126.224 46.1893 127.418 46.8919L128.432 45.1681ZM123.335 43.83C122.159 43.83 121.112 44.0072 120.31 44.4773L121.321 46.2027C121.679 45.9928 122.312 45.83 123.335 45.83V43.83ZM120.319 44.4718C119.52 44.9288 118.975 45.6555 118.975 46.63H120.975C120.975 46.5245 120.991 46.3912 121.312 46.2082L120.319 44.4718ZM118.975 46.63C118.975 47.1041 119.097 47.5684 119.38 47.9747C119.66 48.3752 120.05 48.652 120.478 48.8376L121.273 47.0024C121.101 46.928 121.041 46.8598 121.021 46.8303C121.004 46.8066 120.975 46.7559 120.975 46.63H118.975ZM120.514 48.8526C121.23 49.1296 122.26 49.3728 123.556 49.5955L123.895 47.6245C122.631 47.4072 121.761 47.1904 121.236 46.9874L120.514 48.8526ZM123.571 49.598C124.823 49.7937 125.819 50.0141 126.573 50.2532L127.178 48.3468C126.292 48.0659 125.188 47.8263 123.88 47.622L123.571 49.598ZM126.573 50.2532C127.232 50.4621 127.784 50.8101 128.245 51.3032L129.706 49.9368C129.007 49.1899 128.159 48.6579 127.178 48.3468L126.573 50.2532ZM128.257 51.3154C128.624 51.6951 128.875 52.2935 128.875 53.26H130.875C130.875 51.9465 130.527 50.7849 129.694 49.9246L128.257 51.3154ZM128.875 53.26C128.875 54.4114 128.404 55.3126 127.356 56.0378L128.495 57.6822C130.047 56.6074 130.875 55.1086 130.875 53.26H128.875ZM127.356 56.0378C126.28 56.7829 124.734 57.21 122.615 57.21V59.21C124.977 59.21 126.971 58.7371 128.495 57.6822L127.356 56.0378ZM150.415 41.98H151.415V40.98H150.415V41.98ZM150.415 58V59H151.415V58H150.415ZM146.845 58H145.845V59H146.845V58ZM146.845 55.96H147.845V53.198L146.077 55.3198L146.845 55.96ZM144.595 57.64L144.984 58.5612L144.993 58.5576L145.001 58.5538L144.595 57.64ZM136.615 56.44L135.914 57.1529L135.92 57.1587L135.926 57.1644L136.615 56.44ZM134.785 41.98V40.98H133.785V41.98H134.785ZM138.535 41.98H139.535V40.98H138.535V41.98ZM139.495 53.86L138.748 54.5244L138.757 54.5353L138.767 54.546L139.495 53.86ZM145.465 53.68L144.741 52.9903L144.74 52.9908L145.465 53.68ZM146.665 41.98V40.98H145.665V41.98H146.665ZM149.415 41.98V58H151.415V41.98H149.415ZM150.415 57H146.845V59H150.415V57ZM147.845 58V55.96H145.845V58H147.845ZM146.077 55.3198C145.58 55.9161 144.956 56.3852 144.189 56.7262L145.001 58.5538C146.034 58.0948 146.91 57.4439 147.613 56.6002L146.077 55.3198ZM144.206 56.7188C143.437 57.0435 142.6 57.21 141.685 57.21V59.21C142.85 59.21 143.953 58.9965 144.984 58.5612L144.206 56.7188ZM141.685 57.21C139.734 57.21 138.315 56.6772 137.304 55.7156L135.926 57.1644C137.395 58.5628 139.356 59.21 141.685 59.21V57.21ZM137.316 55.7271C136.349 54.7758 135.785 53.303 135.785 51.13H133.785C133.785 53.637 134.441 55.7042 135.914 57.1529L137.316 55.7271ZM135.785 51.13V41.98H133.785V51.13H135.785ZM134.785 42.98H138.535V40.98H134.785V42.98ZM137.535 41.98V50.62H139.535V41.98H137.535ZM137.535 50.62C137.535 52.187 137.881 53.5491 138.748 54.5244L140.242 53.1956C139.829 52.7309 139.535 51.933 139.535 50.62H137.535ZM138.767 54.546C139.661 55.4938 140.882 55.91 142.285 55.91V53.91C141.288 53.91 140.649 53.6262 140.223 53.174L138.767 54.546ZM142.285 55.91C143.844 55.91 145.186 55.424 146.189 54.3692L144.74 52.9908C144.184 53.576 143.406 53.91 142.285 53.91V55.91ZM146.189 54.3697C147.22 53.2871 147.665 51.8063 147.665 50.08H145.665C145.665 51.4737 145.31 52.3929 144.741 52.9903L146.189 54.3697ZM147.665 50.08V41.98H145.665V50.08H147.665ZM146.665 42.98H150.415V40.98H146.665V42.98ZM182.145 43.57L181.438 44.2771L181.444 44.2831L182.145 43.57ZM183.915 58V59H184.915V58H183.915ZM180.165 58H179.165V59H180.165V58ZM179.235 46.15L178.477 46.8026L178.486 46.813L179.235 46.15ZM173.535 46.33L174.268 47.0098L174.276 47.0009L173.535 46.33ZM172.395 58V59H173.395V58H172.395ZM168.645 58H167.645V59H168.645V58ZM167.715 46.15L166.957 46.8026L166.966 46.813L167.715 46.15ZM161.985 46.3L161.251 45.6202L161.242 45.63L161.985 46.3ZM160.875 58V59H161.875V58H160.875ZM157.125 58H156.125V59H157.125V58ZM157.125 41.98V40.98H156.125V41.98H157.125ZM160.695 41.98H161.695V40.98H160.695V41.98ZM160.695 44.02H159.695V46.782L161.463 44.6602L160.695 44.02ZM162.945 42.37L163.334 43.2912V43.2912L162.945 42.37ZM169.125 42.49L168.678 43.3844L168.689 43.3902L168.701 43.3957L169.125 42.49ZM171.345 44.47L170.493 44.993L171.244 46.2172L172.131 45.0878L171.345 44.47ZM173.895 42.52L174.299 43.4345L174.307 43.4313L174.314 43.428L173.895 42.52ZM177.345 42.8C179.159 42.8 180.484 43.3229 181.438 44.2771L182.852 42.8629C181.446 41.4571 179.57 40.8 177.345 40.8V42.8ZM181.444 44.2831C182.365 45.1886 182.915 46.6356 182.915 48.82H184.915C184.915 46.3244 184.285 44.2714 182.846 42.8569L181.444 44.2831ZM182.915 48.82V58H184.915V48.82H182.915ZM183.915 57H180.165V59H183.915V57ZM181.165 58V49.3H179.165V58H181.165ZM181.165 49.3C181.165 47.7737 180.83 46.4422 179.983 45.487L178.486 46.813C178.88 47.2578 179.165 48.0263 179.165 49.3H181.165ZM179.993 45.4975C179.141 44.5088 177.946 44.07 176.565 44.07V46.07C177.504 46.07 178.088 46.3512 178.477 46.8025L179.993 45.4975ZM176.565 44.07C175.058 44.07 173.765 44.5847 172.793 45.6591L174.276 47.0009C174.824 46.3953 175.552 46.07 176.565 46.07V44.07ZM172.801 45.6502C171.814 46.7152 171.395 48.174 171.395 49.87H173.395C173.395 48.486 173.735 47.5848 174.268 47.0098L172.801 45.6502ZM171.395 49.87V58H173.395V49.87H171.395ZM172.395 57H168.645V59H172.395V57ZM169.645 58V49.3H167.645V58H169.645ZM169.645 49.3C169.645 47.7737 169.31 46.4422 168.463 45.487L166.966 46.813C167.36 47.2578 167.645 48.0263 167.645 49.3H169.645ZM168.473 45.4975C167.621 44.5088 166.426 44.07 165.045 44.07V46.07C165.984 46.07 166.568 46.3512 166.957 46.8025L168.473 45.4975ZM165.045 44.07C163.531 44.07 162.229 44.5657 161.251 45.6202L162.718 46.9798C163.261 46.3943 163.999 46.07 165.045 46.07V44.07ZM161.242 45.63C160.279 46.6974 159.875 48.1642 159.875 49.87H161.875C161.875 48.4558 162.21 47.5426 162.727 46.97L161.242 45.63ZM159.875 49.87V58H161.875V49.87H159.875ZM160.875 57H157.125V59H160.875V57ZM158.125 58V41.98H156.125V58H158.125ZM157.125 42.98H160.695V40.98H157.125V42.98ZM159.695 41.98V44.02H161.695V41.98H159.695ZM161.463 44.6602C161.957 44.068 162.574 43.6119 163.334 43.2912L162.556 41.4487C161.515 41.8881 160.633 42.5319 159.927 43.3798L161.463 44.6602ZM163.334 43.2912C164.096 42.9694 164.962 42.8 165.945 42.8V40.8C164.728 40.8 163.594 41.0106 162.556 41.4487L163.334 43.2912ZM165.945 42.8C167.015 42.8 167.918 43.0045 168.678 43.3844L169.572 41.5956C168.492 41.0554 167.274 40.8 165.945 40.8V42.8ZM168.701 43.3957C169.465 43.7532 170.055 44.2807 170.493 44.993L172.197 43.947C171.554 42.8993 170.665 42.1068 169.549 41.5843L168.701 43.3957ZM172.131 45.0878C172.684 44.3848 173.399 43.8327 174.299 43.4345L173.49 41.6055C172.311 42.1272 171.326 42.8752 170.559 43.8522L172.131 45.0878ZM174.314 43.428C175.21 43.0144 176.215 42.8 177.345 42.8V40.8C175.955 40.8 174.66 41.0656 173.476 41.612L174.314 43.428ZM205.653 51.19V52.19H206.573L206.65 51.273L205.653 51.19ZM193.083 51.19V50.19H191.88L192.1 51.3733L193.083 51.19ZM194.793 54.01L194.188 54.8058L194.197 54.8131L194.207 54.8202L194.793 54.01ZM202.623 53.29L203.378 52.6336L202.668 51.8179L201.91 52.5891L202.623 53.29ZM204.633 55.6L205.4 56.2419L205.948 55.5875L205.388 54.9436L204.633 55.6ZM201.903 57.55L201.532 56.6215L201.903 57.55ZM193.533 57.16L193.07 58.0463L193.533 57.16ZM190.413 54.25L189.545 54.7461L189.55 54.7543L189.555 54.7625L190.413 54.25ZM190.383 45.79L189.515 45.2939L189.513 45.2984L190.383 45.79ZM193.353 42.85L193.839 43.7242L193.353 42.85ZM201.783 42.85L201.286 43.7174L201.294 43.7222L201.303 43.7268L201.783 42.85ZM204.663 45.76L203.783 46.2349L203.788 46.2433L203.793 46.2516L204.663 45.76ZM194.553 45.88L195.203 46.6406L195.204 46.6393L194.553 45.88ZM193.053 48.7L192.065 48.5492L191.889 49.7H193.053V48.7ZM202.143 48.7V49.7H203.291L203.134 48.5634L202.143 48.7ZM200.673 45.88L200.014 46.6314L200.673 45.88ZM204.713 50.08C204.713 50.2982 204.696 50.6356 204.657 51.107L206.65 51.273C206.691 50.7844 206.713 50.3818 206.713 50.08H204.713ZM205.653 50.19H193.083V52.19H205.653V50.19ZM192.1 51.3733C192.364 52.787 193.062 53.9493 194.188 54.8058L195.399 53.2142C194.685 52.6707 194.243 51.953 194.066 51.0067L192.1 51.3733ZM194.207 54.8202C195.348 55.6456 196.724 56.03 198.273 56.03V54.03C197.063 54.03 196.119 53.7344 195.379 53.1998L194.207 54.8202ZM198.273 56.03C200.277 56.03 201.992 55.359 203.337 53.9909L201.91 52.5891C200.975 53.541 199.79 54.03 198.273 54.03V56.03ZM201.869 53.9464L203.879 56.2564L205.388 54.9436L203.378 52.6336L201.869 53.9464ZM203.867 54.9581C203.259 55.6842 202.487 56.2393 201.532 56.6215L202.275 58.4785C203.519 57.9807 204.568 57.2358 205.4 56.2419L203.867 54.9581ZM201.532 56.6215C200.568 57.0072 199.457 57.21 198.183 57.21V59.21C199.67 59.21 201.039 58.9728 202.275 58.4785L201.532 56.6215ZM198.183 57.21C196.558 57.21 195.172 56.8876 193.996 56.2737L193.07 58.0463C194.575 58.8324 196.289 59.21 198.183 59.21V57.21ZM193.996 56.2737C192.812 55.6551 191.913 54.8111 191.272 53.7375L189.555 54.7625C190.394 56.1689 191.574 57.2649 193.07 58.0463L193.996 56.2737ZM191.282 53.7539C190.656 52.6582 190.333 51.4119 190.333 49.99H188.333C188.333 51.7281 188.731 53.3218 189.545 54.7461L191.282 53.7539ZM190.333 49.99C190.333 48.5854 190.647 47.3575 191.254 46.2816L189.513 45.2984C188.72 46.7025 188.333 48.2746 188.333 49.99H190.333ZM191.252 46.2861C191.882 45.1836 192.74 44.3348 193.839 43.7242L192.868 41.9758C191.447 42.7652 190.325 43.8764 189.515 45.2939L191.252 46.2861ZM193.839 43.7242C194.936 43.1145 196.187 42.8 197.613 42.8V40.8C195.88 40.8 194.29 41.1855 192.868 41.9758L193.839 43.7242ZM197.613 42.8C199.018 42.8 200.233 43.1135 201.286 43.7174L202.281 41.9826C200.893 41.1865 199.328 40.8 197.613 40.8V42.8ZM201.303 43.7268C202.371 44.3129 203.194 45.1423 203.783 46.2349L205.543 45.2851C204.773 43.8577 203.675 42.7471 202.264 41.9732L201.303 43.7268ZM203.793 46.2516C204.396 47.3201 204.713 48.5858 204.713 50.08H206.713C206.713 48.2942 206.331 46.6799 205.534 45.2684L203.793 46.2516ZM197.613 43.8C196.196 43.8 194.94 44.2318 193.903 45.1207L195.204 46.6393C195.847 46.0882 196.63 45.8 197.613 45.8V43.8ZM193.904 45.1194C192.881 45.9924 192.277 47.1591 192.065 48.5492L194.042 48.8508C194.19 47.8809 194.585 47.1676 195.203 46.6406L193.904 45.1194ZM193.053 49.7H202.143V47.7H193.053V49.7ZM203.134 48.5634C202.944 47.1842 202.348 46.0192 201.333 45.1286L200.014 46.6314C200.639 47.1808 201.023 47.8958 201.153 48.8366L203.134 48.5634ZM201.333 45.1286C200.309 44.2292 199.045 43.8 197.613 43.8V45.8C198.621 45.8 199.398 46.0908 200.014 46.6314L201.333 45.1286Z" fill="#E0E0E0"/>
<path d="M66.8038 35.5987L36.6075 17.9446C36.258 17.7617 35.8794 17.6671 35.4964 17.6671C35.1134 17.6671 34.7348 17.7617 34.3852 17.9446L4.19604 35.5987C4.00802 35.6704 3.8442 35.8097 3.72804 35.9968C3.61187 36.1839 3.54932 36.4092 3.54932 36.6404C3.54932 36.8715 3.61187 37.0968 3.72804 37.2839C3.8442 37.471 4.00802 37.6104 4.19604 37.682L8.76134 40.3463H8.51994V69.8445C8.18146 70.0708 7.90739 70.4086 7.73184 70.8156L5.75804 75.4802C5.60714 75.8354 5.5362 76.2297 5.55192 76.6258C5.56764 77.0219 5.6695 77.4068 5.84789 77.7442C6.02627 78.0815 6.27528 78.36 6.57139 78.5535C6.86749 78.747 7.20092 78.8491 7.54014 78.85H11.5374C11.8782 78.8512 12.2136 78.7503 12.5116 78.5569C12.8096 78.3636 13.0602 78.0842 13.2396 77.7455C13.419 77.4068 13.5212 77.02 13.5365 76.622C13.5517 76.2239 13.4795 75.828 13.3266 75.4719L11.3599 70.8156C11.1844 70.4086 10.9103 70.0708 10.5718 69.8445V41.3838L15.5418 44.3054V58.7308C15.5418 62.001 17.6718 65.0388 21.52 67.2881C25.2688 69.4793 30.2388 70.6828 35.5141 70.6828C40.7894 70.6828 45.7594 69.4793 49.5082 67.2881C53.3635 65.0388 55.4864 61.9927 55.4864 58.7308V44.3054L66.8464 37.6654C67.0345 37.5938 67.1983 37.4544 67.3144 37.2673C67.4306 37.0802 67.4932 36.8549 67.4932 36.6238C67.4932 36.3926 67.4306 36.1673 67.3144 35.9802C67.1983 35.7931 67.0345 35.6538 66.8464 35.5821L66.8038 35.5987ZM11.5374 76.526H7.54014L9.53524 71.8614L11.5374 76.526ZM53.47 58.7308C53.47 61.0714 51.7376 63.3705 48.5994 65.2048C45.1275 67.23 40.4699 68.3588 35.4999 68.3588C30.5299 68.3588 25.8723 67.23 22.4004 65.2048C19.2622 63.3705 17.5298 61.0548 17.5298 58.7308V45.4508L34.3852 55.3278C34.7348 55.5107 35.1134 55.6053 35.4964 55.6053C35.8794 55.6053 36.258 55.5107 36.6075 55.3278L53.47 45.4674V58.7308ZM35.72 53.2279C35.6448 53.2422 35.5681 53.2422 35.4928 53.2279C35.4198 53.2398 35.3458 53.2398 35.2727 53.2279L6.87274 36.6279L35.2727 20.0279C35.348 20.0137 35.4247 20.0137 35.4999 20.0279C35.573 20.016 35.647 20.016 35.72 20.0279L64.12 36.6279L35.72 53.2279Z" fill="#0AAE80"/>
</svg>
